<svg xmlns="http://www.w3.org/2000/svg" viewBox="0 0 107.12 107.12">
<defs><style>.cls-1{fill:#cdcdcd;}.cls-2{fill:#fff;}</style></defs>
<title>Ресурс 2</title>
<g id="Слой_2" data-name="Слой 2">
<g id="OBJECTS">
<rect class="cls-1" width="107.12" height="107.12" rx="53.56" ry="53.56"/>
<path class="cls-2" d="M77.89,28.75a1.84,1.84,0,0,0-.66.12L20.44,50.46a1.83,1.83,0,0,0,.06,3.44l13.17,4.45,7.94,15.89h0l0,0h0a.86.86,0,0,0,.76.48.84.84,0,0,0,.55-.2l7.44-6.31L42.08,62l.65,8.28-6-12.36L68.5,38.82,42.08,62,62.65,77.57a3.7,3.7,0,0,0,2.25.76,3.74,3.74,0,0,0,3.64-2.84L79.66,31A1.83,1.83,0,0,0,77.89,28.75Z"/>
</g></g></svg>